inDegrees=yes
name=ik_lifting_orientations
DataType=double
version=3
OpenSimVersion=4.5-2024-01-10-34fd6af
endheader
time	pelvis_tilt	pelvis_list	pelvis_rotation	pelvis_tx	pelvis_ty	pelvis_tz	hip_flexion_r	hip_adduction_r	hip_rotation_r	knee_angle_r	knee_angle_r_beta	ankle_angle_r	subtalar_angle_r	mtp_angle_r	hip_flexion_l	hip_adduction_l	hip_rotation_l	knee_angle_l	knee_angle_l_beta	ankle_angle_l	subtalar_angle_l	mtp_angle_l	lumbar_extension	lumbar_bending	lumbar_rotation	arm_flex_r	arm_add_r	arm_rot_r	elbow_flex_r	pro_sup_r	wrist_flex_r	wrist_dev_r	arm_flex_l	arm_add_l	arm_rot_l	elbow_flex_l	pro_sup_l	wrist_flex_l	wrist_dev_l
0.02	0.007612781547650715	0.003371495187052249	-89.99727295969657	0	0.9399999998679526	0	45.02179140399484	-13.61674831335781	0	60.02772585049298	1.047681458575616	-6.91132301723988	0	0	45.02179140399484	-13.61674831335781	0	60.02772585049298	1.047681458575616	-6.91132301723988	0	0	0.003970466732765131	-0.009930590409742172	0.006923126006398481	-0.2445874802978697	-0.04840532226863925	-0.006817974808172614	0.5070994228058294	3.404185939436726	0	0	0	-8.855118614111111	0	86.66526798176353	3.404185939436726	0	0
0.03	0.007467995553716683	0.05909965904728617	-89.99088936396099	0	0.9399999998679526	0	45.02140004556794	-13.41948847685415	0	60.02733317448726	1.047674605086423	-6.782983140880225	0	0	45.02140004556794	-13.41948847685415	0	60.02733317448726	1.047674605086423	-6.782983140880225	0	0	0.05647228437115753	-0.004495312761647594	-0.000197507013027511	-0.2503649914634619	-0.05418209169174183	0.01766961828865525	0.4834203267310718	3.360807515559978	0	0	0	-8.913472382355749	0	86.70775714397871	3.360807515559978	0	0
0.04	0.003521936537734964	0.06081886853550432	-89.99189957881055	0	0.9399999998679526	0	45.02036177673224	-12.95600361882868	0	60.02627955481224	1.04765621595403	-6.494385222721323	0	0	45.02036177673224	-12.95600361882868	0	60.02627955481224	1.04765621595403	-6.494385222721323	0	0	0.0002041175402056029	-0.004670470771711959	-0.001779498885115555	-0.2154012981852809	-0.04924650210186601	0.02110064191199783	0.5000477311302571	3.243897198368688	0	0	0	-9.072266429109829	0	86.8222714400449	3.243897198368688	0	0
0.05	0.002341210600298007	0.004361479802922084	-89.93643308080622	0	0.9399999998679526	0	45.01997954576926	-12.78938130052722	0	60.0258902246154	1.047649420860217	-6.390915928744436	0	0	45.01997954576926	-12.78938130052722	0	60.0258902246154	1.047649420860217	-6.390915928744436	0	0	-0.1116213473417782	-0.003985237704883863	-0.05803548528194068	-0.1989783508716874	-0.05096190560397588	0.02432245643236311	0.4858011802433517	3.200631161236644	0	0	0	-9.131235403766935	0	86.86465082515288	3.200631161236644	0	0
0.06	0.001444575362745047	-0.004979419224870127	-89.93258882909041	0	0.9399999998679526	0	45.0196048315503	-12.63053335160161	0	60.02550748768383	1.047642740840592	-6.293241831916192	0	0	45.0196048315503	-12.63053335160161	0	60.02550748768383	1.047642740840592	-6.293241831916192	0	0	-0.1890890691783497	-0.003720950821247854	-0.1212838948365085	-0.1245485609028394	-0.04589869783168932	0.08268624786958337	0.4738428884256958	3.158051446098334	0	0	0	-9.18940794356787	0	86.90635800221048	3.158051446098334	0	0
0.07000000000000001	-0.006981522096452304	0.002637699122168038	-89.99449197655733	0	0.9399999998679526	0	45.01922177510365	-12.47574942311517	0	60.02511437056177	1.047635879652467	-6.199662762800338	0	0	45.01922177510365	-12.47574942311517	0	60.02511437056177	1.047635879652467	-6.199662762800338	0	0	-0.2445197530452276	0.002884606920870321	-0.06077969174001032	-0.06435063141864293	-0.02962561874873892	0.09541882300187092	0.4871278084773251	3.114236962979841	0	0	0	-9.249510483008246	0	86.94927473271346	3.114236962979841	0	0
0.08	-0.005376776599724882	-0.003020721301962605	-89.99290736895856	0	0.9399999998679526	0	45.0188742610001	-12.33957923417028	0	60.02475663095691	1.047629635918497	-6.118213570573085	0	0	45.0188742610001	-12.33957923417028	0	60.02475663095691	1.047629635918497	-6.118213570573085	0	0	-0.31894092962464	0.0004408683994848869	-0.1206445882596137	0.01536340805840117	-0.009074738496655445	0.1649682641377409	0.4755770110851787	3.074316064055675	0	0	0	-9.304418384960288	0	86.98837770788583	3.074316064055675	0	0
0.09	-0.008004946665151114	0.003436424492603702	-90.05750206223692	0	0.9399999998679526	0	45.01837335935132	-12.15069481198859	0	60.0242391287396	1.047620603800919	-6.006858507999263	0	0	45.01837335935132	-12.15069481198859	0	60.0242391287396	1.047620603800919	-6.006858507999263	0	0	-0.3672141394571122	0.006180162541889668	-0.1313974466864126	0.06848943133586557	-0.01789024032991874	0.2369401885656285	0.4883351200996727	3.016484646125709	0	0	0	-9.384205994706827	0	87.04502432582126	3.016484646125709	0	0
0.1	-0.01247387722938331	0.004595769050229962	-90.09654243719953	0	0.9399999998679526	0	45.01837059810536	-12.14956154875929	0	60.02423628725752	1.047620554207701	-6.006167763493282	0	0	45.01837059810536	-12.14956154875929	0	60.02423628725752	1.047620554207701	-6.006167763493282	0	0	-0.4473267658867124	0.01044934549984687	-0.149829976363972	0.1056862898971188	-0.03713805125288237	0.2886885231762462	0.5105263035232722	3.016168943115789	0	0	0	-9.384639148637202	0	87.04533355996811	3.016168943115789	0	0
0.11	-0.0233699024838628	0.02797664551261028	-90.11535698154172	0	0.9399999998679526	0	45.01789736230689	-11.98155110298853	0	60.02374441712046	1.047611969454317	-5.90920947465617	0	0	45.01789736230689	-11.98155110298853	0	60.02374441712046	1.047611969454317	-5.90920947465617	0	0	-0.4950422657206514	0.02806766804131128	-0.1776581468473099	-0.07754697447373848	-0.1503724661913217	0.3557687840895836	1.032779955469148	2.961075497608284	0	0	0	-9.461040225089695	0	87.09929842719771	2.961075497608284	0	0
0.12	-0.03007032683553069	0.01785677418656136	-90.18919335544388	0	0.9399999998679526	0	45.01789330371227	-11.9799946055864	0	60.02374018163907	1.047611895531221	-5.908281675654932	0	0	45.01789330371227	-11.9799946055864	0	60.02374018163907	1.047611895531221	-5.908281675654932	0	0	-0.6469802340079108	0.031347725801865	-0.2371724212298588	0.3164982183052529	-0.0837123404527254	0.4890721593560234	0.5200889154722962	2.960606332041637	0	0	0	-9.461688773756862	0	87.09975798081346	2.960606332041637	0	0
0.13	-0.03371973241697789	0.001488153320054689	-90.2489172923337	0	0.9399999998679526	0	45.01747754708246	-11.83769396996589	0	60.02330653892719	1.047604327038121	-5.827264537803774	0	0	45.01747754708246	-11.83769396996589	0	60.02330653892719	1.047604327038121	-5.827264537803774	0	0	-0.7514262703592904	0.02728110996253246	-0.2389260176865111	0.4126829743144126	-0.08205045189447489	0.5284527556968742	0.5184270893094104	2.911965494442396	0	0	0	-9.529345608107828	0	87.14740248038527	2.911965494442396	0	0
0.14	-0.02663101849675879	0.002293668380341353	-90.24043940400995	0	0.9399999998679526	0	45.01747480360564	-11.83668254993159	0	60.02330368765569	1.047604277274046	-5.826671359524527	0	0	45.01747480360564	-11.83668254993159	0	60.02330368765569	1.047604277274046	-5.826671359524527	0	0	-0.8058234843219221	0.02791720920128874	-0.3597409708768484	0.4207195466919202	-0.1170174774366639	0.5417976476681313	0.5859111518110106	2.91164727094146	0	0	0	-9.52978608229399	0	87.14771418471021	2.91164727094146	0	0
0.15	-0.03577194313032184	-0.05837620327927978	-90.29466005251089	0	0.9399999998679526	0	45.01705988802821	-11.70215573452522	0	60.02286864322728	1.047596684316378	-5.75158009816917	0	0	45.01705988802821	-11.70215573452522	0	60.02286864322728	1.047596684316378	-5.75158009816917	0	0	-0.9305530499985255	0.03451092601485451	-0.3152145768443651	0.426995843446466	-0.1317895716689278	0.514820998862386	0.6390066119088568	2.86274867749747	0	0	0	-9.598107458721321	0	87.19561125424006	2.86274867749747	0	0
0.16	-0.04911173501776493	-0.05496262329093633	-90.37157368955556	0	0.9399999998679526	0	45.01705514886623	-11.70050051975334	0	60.02286368785141	1.047596597828753	-5.750628011981695	0	0	45.01705514886623	-11.70050051975334	0	60.02286368785141	1.047596597828753	-5.750628011981695	0	0	-1.057390227771467	0.04810795904714801	-0.3612242772051178	0.5536773616798667	-0.13690192552112	0.5872199952382099	0.621793044106825	2.862194834510534	0	0	0	-9.598877671982422	0	87.1961537522389	2.862194834510534	0	0
0.17	-0.04852629077515654	-0.06106737078086023	-90.37070718299773	0	0.9399999998679526	0	45.01668386732899	-11.58457902382973	0	60.0224729548541	1.047589778251454	-5.686810715730418	0	0	45.01668386732899	-11.58457902382973	0	60.0224729548541	1.047589778251454	-5.686810715730418	0	0	-1.123275406130108	0.05128352699322111	-0.4918321131614894	0.6186170673443299	-0.1699094502455501	0.7207906677422641	0.6132067737518315	2.818214447133144	0	0	0	-9.660520351438214	0	87.23923340326444	2.818214447133144	0	0
0.18	-0.05428856972795809	-0.06155139018005757	-90.43084197294236	0	0.9399999998679526	0	45.01632385754339	-11.47768975399509	0	60.0220922628734	1.047583133922955	-5.629060013878155	0	0	45.01632385754339	-11.47768975399509	0	60.0220922628734	1.047583133922955	-5.629060013878155	0	0	-1.186209258968466	0.05371509023297546	-0.4315211430467452	0.6746372006762242	-0.2081883563353181	0.680530739154331	0.6185187482366866	2.775282895548795	0	0	0	-9.720939905538904	0	87.28128577000868	2.775282895548795	0	0
0.19	-0.0641766192249798	-0.121855321102567	-90.50790377805534	0	0.9399999998679526	0	45.01632200419431	-11.47710875784874	0	60.0220902902448	1.047583099494091	-5.628738329689472	0	0	45.01632200419431	-11.47710875784874	0	60.0220902902448	1.047583099494091	-5.628738329689472	0	0	-1.23124032731801	0.06269349342912064	-0.4727470670375414	0.6543975216142239	-0.2167969574004902	0.7588542770789549	0.6143309743593132	2.775062759664011	0	0	0	-9.721249335368075	0	87.28150139748766	2.775062759664011	0	0
0.2	-0.07281626098225283	-0.1264593650890308	-90.55315835462835	0	0.9399999998679526	0	45.01595487372306	-11.37399780153294	0	60.02169999086724	1.047576287484884	-5.574167328103018	0	0	45.01595487372306	-11.37399780153294	0	60.02169999086724	1.047576287484884	-5.574167328103018	0	0	-1.380433767665967	0.07162654131907503	-0.5007939115357226	0.8021477636942714	-0.225296900529684	0.801506589235637	0.6167181708471136	2.730955228250259	0	0	0	-9.783607359205973	0	87.3247057401979	2.730955228250259	0	0
0.21	-0.06884807743217132	-0.1153944192560316	-90.54289925590302	0	0.9399999998679526	0	45.01595232722955	-11.37323011471662	0	60.02169729140118	1.047576240370313	-5.573749171473136	0	0	45.01595232722955	-11.37323011471662	0	60.02169729140118	1.047576240370313	-5.573749171473136	0	0	-1.477924600171266	0.07219172573455875	-0.5596151026479775	0.8865059038807234	-0.2490933147239046	0.7385501235604673	0.599339855767664	2.730651753401872	0	0	0	-9.784034463335207	0	87.32500300015151	2.730651753401872	0	0
0.22	-0.07812109640614281	-0.09781323235160883	-90.60759195447932	0	0.9399999998679526	0	45.01595207107857	-11.37315775517262	0	60.02169700587977	1.047576235387024	-5.57371025161174	0	0	45.01595207107857	-11.37315775517262	0	60.02169700587977	1.047576235387024	-5.57371025161174	0	0	-1.49418357979466	0.07007391414778166	-0.5789601803512542	0.8867038200920495	-0.2555830793391842	0.7232375593194966	0.5939357658240658	2.730620624964206	0	0	0	-9.784078994977138	0	87.32503349122227	2.730620624964206	0	0
